<svg xmlns="http://www.w3.org/2000/svg" version="1.1" x="0" y="0" viewBox="0 325.9 594 140.1" enable-background="new 0 325.9 594 140.1" xml:space="preserve"><polygon points="111.5 421.6 44.4 354.6 59 340 112.1 392.7 140.1 364.7 140.1 337.6 140.1 325.9 128.5 325.9 11.6 325.9 0 325.9 0 337.6 0 399 38.8 360.2 53.1 374.5 42.9 384.7 95.7 437.4 81.1 452.3 28 399.3 0 427.6 0 454.4 0 466.1 11.6 466.1 128.5 466.1 140.1 466.1 140.1 454.4 140.1 393 "/><path d="M215.1 358.3v55.4h-11.1v-55.4h-20v-10h50.9v10C234.8 358.3 215.1 358.3 215.1 358.3zM300.2 404.8c-6.7 6.4-14.7 9.7-24.5 9.7 -9.7 0-18.1-3.3-24.5-9.7 -6.7-6.4-10-14.5-10-24.2 0-9.7 3.3-17.8 10-24.2 6.7-6.4 14.7-9.7 24.5-9.7 9.7 0 18.1 3.3 24.5 9.7 6.7 6.4 10 14.5 10 24.2C310 390.3 306.6 398.4 300.2 404.8zM291.9 363.6c-4.5-4.7-10-7-16.4-7s-12 2.2-16.4 7c-4.5 4.7-6.7 10.3-6.7 17 0 6.7 2.2 12.2 6.7 17 4.5 4.7 10 7 16.4 7s12-2.2 16.4-7c4.5-4.7 6.7-10.3 6.7-17C298.8 373.9 296.6 368.4 291.9 363.6zM335 414h-11.1v-65.7h17.3l19.8 41.2 19.8-41.2h17.3V414h-11.1v-51.5l-22.8 45.6h-6.1L335 362.5V414zM442.1 414v-65.7h11.1v55.1h30.1V414H442.1zM541.2 348.3v10.3h-35.1v17.3h31.4v9.7h-31.4v17.8h36.2v10.3H495v-65.4H541.2z"/><path d="M185.6 443.8c-1.4-1.4-1.9-3.1-1.9-5.3 0-2.2 0.6-3.9 1.9-5.3 1.4-1.4 3.1-1.9 4.7-1.9 1.9 0 3.3 0.8 4.5 2.5V426h3.1v19.5h-3.1v-2.2c-1.1 1.7-2.8 2.2-4.7 2.2C188.4 445.8 187 445.2 185.6 443.8zM186.7 438.5c0 1.4 0.6 2.5 1.4 3.3s1.9 1.4 3.1 1.4 2.2-0.6 3.1-1.4c0.8-0.8 1.1-1.9 1.1-3.3 0-1.4-0.3-2.5-1.1-3.3s-1.7-1.4-3.1-1.4c-1.1 0-2.2 0.6-3.1 1.4C187 436 186.7 437.1 186.7 438.5zM218.4 439.9h-11.1c0 1.1 0.6 1.9 1.4 2.5 0.8 0.6 1.9 0.8 3.1 0.8 1.7 0 3.1-0.6 3.9-1.7l1.7 1.9c-1.4 1.7-3.6 2.2-5.8 2.2 -1.9 0-3.6-0.6-5-1.9 -1.4-1.4-1.9-3.1-1.9-5.3s0.8-3.9 2.2-5.3c1.4-1.4 3.1-1.9 5-1.9 1.9 0 3.6 0.6 4.7 1.7 1.4 1.1 1.9 2.8 1.9 4.7V439.9zM207.6 437.4h8.1c0-1.1-0.3-1.9-1.1-2.8 -0.8-0.6-1.7-0.8-2.8-0.8s-1.9 0.3-2.8 1.1C207.8 435.5 207.6 436.3 207.6 437.4zM234.8 441.3c0 1.4-0.6 2.5-1.4 3.3 -0.8 0.8-2.2 1.1-3.6 1.1 -1.1 0-1.9-0.3-3.1-0.6s-1.9-0.8-2.8-1.7l1.4-2.2c1.7 1.1 3.3 1.9 4.7 1.9 0.6 0 1.1-0.3 1.7-0.6 0.3-0.3 0.6-0.8 0.6-1.1 0-0.8-0.8-1.4-2.8-1.9 -0.3 0-0.3 0-0.3 0 -2.8-0.8-4.5-2.2-4.5-3.9 0-1.4 0.6-2.2 1.4-3.1 1.1-0.8 2.2-1.1 3.9-1.1 1.7 0 3.1 0.6 4.5 1.4l-1.1 1.9c-1.1-0.8-2.5-1.1-3.6-1.1 -0.8 0-1.4 0-1.7 0.3 -0.6 0.3-0.6 0.6-0.6 1.1 0 0.6 0.3 0.8 0.6 1.1 0.3 0.3 0.8 0.3 1.4 0.6 0.6 0 1.1 0.3 1.4 0.6 0.6 0.3 0.8 0.3 1.4 0.6 0.3 0.3 0.8 0.6 1.4 0.8C234.3 439.1 234.8 439.9 234.8 441.3zM241.5 428.8c-0.3-0.3-0.6-0.8-0.6-1.4 0-0.6 0.3-0.8 0.6-1.4 0.3-0.3 0.8-0.6 1.4-0.6 0.6 0 0.8 0.3 1.4 0.6 0.3 0.3 0.6 0.8 0.6 1.4 0 0.6-0.3 0.8-0.6 1.4 -0.3 0.3-0.8 0.6-1.4 0.6S242.1 429.1 241.5 428.8zM244.3 445.5h-3.1v-13.9h3.1V445.5zM264.9 431.6v12.2c0 2.5-0.6 4.5-1.9 5.6 -1.4 1.1-3.1 1.9-5.3 1.9s-3.9-0.6-5.8-1.9l1.4-2.2c1.4 1.1 2.8 1.7 4.2 1.7 1.4 0 2.5-0.3 3.3-1.1 0.8-0.8 1.1-1.9 1.1-3.3v-1.7c-0.6 0.8-1.1 1.4-1.9 1.9 -0.8 0.6-1.7 0.8-2.8 0.8 -1.9 0-3.3-0.6-4.5-1.9 -1.1-1.4-1.7-2.8-1.7-4.7s0.6-3.6 1.7-4.7c1.1-1.4 2.8-1.9 4.5-1.9 1.9 0 3.3 0.8 4.5 2.2v-1.9h3.3V431.6zM253.7 438c0 1.1 0.3 2.2 1.1 3.1s1.7 1.4 2.8 1.4 2.2-0.3 3.1-1.1c0.8-0.8 1.1-1.9 1.1-3.1 0-1.1-0.3-2.2-1.1-3.1 -0.8-0.8-1.7-1.4-3.1-1.4 -1.1 0-2.2 0.6-2.8 1.4C254 435.7 253.7 436.9 253.7 438zM275.2 438v7.5h-3.1v-13.9h3.1v2.5c0.6-0.8 1.1-1.7 1.9-1.9 0.8-0.6 1.7-0.8 2.8-0.8 1.7 0 2.8 0.6 3.9 1.4 1.1 0.8 1.4 2.5 1.4 4.2v8.6h-3.1v-7.8c0-2.5-1.1-3.9-3.3-3.9 -1.1 0-1.9 0.3-2.8 1.1C275.5 435.7 275.2 436.6 275.2 438zM308.3 445.8c-1.7 0-3.1-0.6-4.5-1.4 -1.1-0.8-1.9-2.2-1.9-3.9 0-1.9 1.4-3.9 4.5-5.3 -0.8-0.8-1.1-1.4-1.4-1.9 -0.3-0.6-0.6-1.1-0.6-1.9 0-1.4 0.6-2.5 1.7-3.3s2.2-1.1 3.6-1.1 2.5 0.3 3.6 1.1c1.1 0.8 1.4 1.7 1.4 3.1 0 1.7-1.4 3.3-4.2 5 1.4 1.7 2.5 3.1 3.3 3.9 0.6-0.8 0.8-1.7 1.4-2.8l2.2 1.4c-0.6 1.1-1.1 2.2-1.7 3.1 0.8 0.8 1.7 1.7 2.8 2.5l-1.9 1.9 -2.5-2.5C312.5 444.9 310.5 445.8 308.3 445.8zM305.8 442.4c0.6 0.6 1.7 0.8 2.8 0.8s2.2-0.6 3.6-1.4c-1.7-1.9-3.1-3.3-4.2-4.7 -1.9 1.1-3.1 2.2-3.1 3.6C304.9 441.3 305.2 441.9 305.8 442.4zM309.4 429.1c-0.6 0-1.1 0.3-1.7 0.6 -0.6 0.3-0.8 0.8-0.8 1.4 0 0.6 0 0.8 0.3 1.4 0.3 0.3 0.6 0.8 1.1 1.7 1.9-1.1 3.1-1.9 3.1-2.8s-0.3-1.1-0.8-1.7C310.8 429.1 310.2 429.1 309.4 429.1zM335.8 443.8c-1.4-1.4-1.9-3.1-1.9-5.3 0-2.2 0.6-3.9 1.9-5.3 1.4-1.4 3.1-1.9 4.7-1.9 1.9 0 3.3 0.8 4.5 2.5V426h3.1v19.5H345v-2.2c-1.1 1.7-2.8 2.2-4.7 2.2C338.6 445.8 336.9 445.2 335.8 443.8zM336.7 438.5c0 1.4 0.6 2.5 1.4 3.3 0.8 0.8 1.9 1.4 3.1 1.4s2.2-0.6 3.1-1.4c0.8-0.8 1.1-1.9 1.1-3.3 0-1.4-0.3-2.5-1.1-3.3 -0.8-0.8-1.7-1.4-3.1-1.4 -1.1 0-2.2 0.6-3.1 1.4S336.7 437.1 336.7 438.5zM368.7 439.9h-11.1c0 1.1 0.6 1.9 1.4 2.5 0.8 0.6 1.9 0.8 3.1 0.8 1.7 0 3.1-0.6 3.9-1.7l1.7 1.9c-1.4 1.7-3.6 2.2-5.8 2.2 -1.9 0-3.6-0.6-5-1.9 -1.4-1.4-1.9-3.1-1.9-5.3s0.8-3.9 2.2-5.3c1.4-1.4 3.1-1.9 5-1.9 1.9 0 3.6 0.6 4.7 1.7 1.4 1.1 1.9 2.8 1.9 4.7V439.9zM357.5 437.4h8.1c0-1.1-0.3-1.9-1.1-2.8 -0.8-0.6-1.7-0.8-2.8-0.8s-1.9 0.3-2.8 1.1C358.1 435.5 357.5 436.3 357.5 437.4zM378.7 445.5l-5.6-13.9h3.1l4.2 10.6 4.2-10.6h3.1l-5.6 13.9H378.7zM406.2 439.9h-11.1c0 1.1 0.6 1.9 1.4 2.5 0.8 0.6 1.9 0.8 3.1 0.8 1.7 0 3.1-0.6 3.9-1.7l1.7 1.9c-1.4 1.7-3.6 2.2-5.8 2.2 -1.9 0-3.6-0.6-5-1.9 -1.4-1.4-1.9-3.1-1.9-5.3s0.8-3.9 2.2-5.3c1.4-1.4 3.1-1.9 5-1.9s3.6 0.6 4.7 1.7c1.4 1.1 1.9 2.8 1.9 4.7V439.9zM395.1 437.4h8.1c0-1.1-0.3-1.9-1.1-2.8 -0.8-0.6-1.7-0.8-2.8-0.8 -1.1 0-1.9 0.3-2.8 1.1C395.7 435.5 395.1 436.3 395.1 437.4zM415.4 445.5h-3.1V426h3.1V445.5zM434.6 443.5c-1.4 1.4-3.1 2.2-5.3 2.2 -2.2 0-3.9-0.8-5.3-2.2 -1.4-1.4-2.2-3.1-2.2-5 0-1.9 0.8-3.6 2.2-5 1.4-1.4 3.1-2.2 5.3-2.2 2.2 0 3.9 0.8 5.3 2.2 1.4 1.4 2.2 3.1 2.2 5C436.8 440.5 436 442.1 434.6 443.5zM426.3 441.9c0.8 0.8 1.9 1.4 3.1 1.4 1.4 0 2.2-0.6 3.1-1.4 0.8-0.8 1.4-1.9 1.4-3.3 0-1.4-0.6-2.5-1.4-3.3 -0.8-0.8-1.9-1.4-3.1-1.4 -1.4 0-2.2 0.6-3.1 1.4 -0.8 0.8-1.4 1.9-1.4 3.3C425.2 439.9 425.4 441 426.3 441.9zM450.8 431.3c1.9 0 3.6 0.6 4.7 1.9 1.4 1.4 1.9 3.1 1.9 5.3s-0.6 3.9-1.9 5.3c-1.4 1.4-2.8 1.9-4.7 1.9 -1.7 0-3.3-0.8-4.7-2.2v7.2H443v-19.2h3.1v2.5C447.4 432.1 449.1 431.3 450.8 431.3zM446.3 438.5c0 1.4 0.3 2.5 1.1 3.3 0.8 0.8 1.7 1.4 3.1 1.4 1.4 0 2.2-0.6 3.1-1.4 0.8-0.8 1.4-1.9 1.4-3.3 0-1.4-0.6-2.5-1.4-3.3 -0.8-0.8-1.9-1.4-3.1-1.4 -1.1 0-2.2 0.6-3.1 1.4C446.6 436 446.3 437.1 446.3 438.5zM467.2 438v7.5h-3.1v-13.9h3.1v2.5c0.6-0.8 1.1-1.7 1.9-1.9 0.8-0.6 1.7-0.8 2.8-0.8 2.2 0 3.6 0.8 4.5 2.8 1.4-1.9 3.1-2.8 5.3-2.8 1.7 0 2.8 0.6 3.9 1.4 1.1 0.8 1.4 2.5 1.4 4.2v8.6h-3.1v-7.8c0-2.5-1.1-3.9-3.3-3.9 -1.1 0-1.9 0.3-2.5 0.8 -0.8 0.6-1.1 1.7-1.1 2.8v7.8h-3.1v-7.5c0-1.4-0.3-2.2-0.8-3.1 -0.6-0.6-1.1-0.8-2.2-0.8s-1.9 0.3-2.8 1.1C467.4 435.7 467.2 436.6 467.2 438zM507.2 439.9h-11.1c0 1.1 0.6 1.9 1.4 2.5 0.8 0.6 1.9 0.8 3.1 0.8 1.7 0 3.1-0.6 3.9-1.7l1.7 1.9c-1.4 1.7-3.6 2.2-5.8 2.2 -1.9 0-3.6-0.6-5-1.9 -1.4-1.4-1.9-3.1-1.9-5.3s0.8-3.9 2.2-5.3c1.4-1.4 3.1-1.9 5-1.9 1.9 0 3.6 0.6 4.7 1.7 1.4 1.1 1.9 2.8 1.9 4.7V439.9zM496.1 437.4h8.1c0-1.1-0.3-1.9-1.1-2.8 -0.8-0.6-1.7-0.8-2.8-0.8 -1.1 0-1.9 0.3-2.8 1.1C496.7 435.5 496.1 436.3 496.1 437.4zM516.7 438v7.5h-3.1v-13.9h3.1v2.5c0.6-0.8 1.1-1.7 1.9-1.9 0.8-0.6 1.7-0.8 2.8-0.8 1.7 0 2.8 0.6 3.9 1.4 1.1 0.8 1.4 2.5 1.4 4.2v8.6h-3.1v-7.8c0-2.5-1.1-3.9-3.3-3.9 -1.1 0-1.9 0.3-2.8 1.1C517 435.7 516.7 436.6 516.7 438zM537.3 433.8v7.2c0 0.6 0.3 1.1 0.6 1.7 0.3 0.3 0.8 0.6 1.4 0.6 0.6 0 1.1-0.3 1.9-0.8l1.1 1.9c-1.1 0.8-2.2 1.4-3.3 1.4 -1.4 0-2.2-0.6-3.3-1.4 -0.8-0.8-1.4-1.9-1.4-3.6v-7h-1.7v-2.5h1.7v-4.5h3.1v4.5h3.6v2.5H537.3z"/></svg>